# xmcd
#
# Track frame offsets:
#	150
#	15902
#	31203
#	48867
#	59369
#	78121
#	99197
#	111460
#	124249
#	135989
#	156165
#	168767
#	181631
#	196970
#	208185
#	218088
#	231066
#
# Disc length: 3248 seconds
#
# Revision: 0
# Processed by: cddbd v1.5.2PL0 Copyright (c) Steve Scherf et al.
# Submitted via: EasyCDDAExtractor 2010.6.0.0
#
DISCID=cf0cae11
DTITLE=경성스캔들
DYEAR=1900
DGENRE=
TTITLE0=경성스캔들
TTITLE1=Because of you
TTITLE2=Elegy
TTITLE3=Dance with me
TTITLE4=끝이라 믿는 그대
TTITLE5=No Life Without You
TTITLE6=Winds of Kyung Sung
TTITLE7=경성스캔들 (Inst.ver)
TTITLE8=Sweet Song
TTITLE9=경성 BLUES
TTITLE10=몽(夢)
TTITLE11=Waltz of Destiny
TTITLE12=Elegy Tango
TTITLE13=끝이라 믿는 그대 (Inst.ver)
TTITLE14=One Summer
TTITLE15=Because of you (Inst.ver)
TTITLE16=In a Mood
EXTD=
EXTT0=
EXTT1=
EXTT2=
EXTT3=
EXTT4=
EXTT5=
EXTT6=
EXTT7=
EXTT8=
EXTT9=
EXTT10=
EXTT11=
EXTT12=
EXTT13=
EXTT14=
EXTT15=
EXTT16=
PLAYORDER=
